<?xml version="1.0" standalone="no"?>
<!DOCTYPE svg PUBLIC "-//W3C//DTD SVG 20010904//EN"
 "http://www.w3.org/TR/2001/REC-SVG-20010904/DTD/svg10.dtd">
<svg version="1.0" xmlns="http://www.w3.org/2000/svg"
 width="384.000000pt" height="252.000000pt" viewBox="0 0 384.000000 252.000000"
 preserveAspectRatio="xMidYMid meet">

<g transform="translate(0.000000,252.000000) scale(0.100000,-0.100000)"
fill="#000000" stroke="none">
<path d="M3345 2484 c-11 -1 -108 -10 -215 -19 -371 -30 -545 -45 -650 -55
-58 -5 -134 -12 -170 -15 -36 -2 -119 -9 -185 -15 -185 -16 -1157 -98 -1370
-115 -213 -17 -399 -42 -431 -57 -34 -16 -54 -61 -54 -120 0 -31 25 -150 60
-288 32 -129 57 -237 54 -239 -2 -3 -31 -7 -63 -9 -57 -4 -60 -3 -102 36 -24
22 -70 65 -102 94 -32 30 -71 62 -87 72 l-30 17 0 -25 c0 -14 15 -47 34 -73
18 -27 45 -69 60 -95 l27 -47 -60 -7 c-84 -9 -77 -24 11 -23 80 1 98 -10 98
-63 0 -19 10 -38 30 -56 24 -22 32 -40 40 -97 6 -38 19 -83 29 -100 27 -43 43
-101 43 -147 -1 -50 13 -46 55 15 32 48 37 70 49 210 3 49 10 77 18 77 7 0 31
-77 59 -193 65 -260 87 -287 238 -287 66 0 71 -1 66 -20 -8 -29 11 -35 22 -7
l9 24 264 6 c144 4 334 7 421 7 l157 0 0 25 c0 14 -1 28 -2 31 -2 3 -180 5
-396 4 l-393 -1 14 28 c8 15 24 50 36 76 16 36 26 47 39 43 71 -21 228 -31
496 -31 275 0 296 -1 263 -15 -32 -13 -37 -20 -37 -47 0 -17 5 -35 10 -38 11
-7 86 37 152 87 35 27 138 52 138 34 0 -4 -18 -44 -39 -89 -48 -100 -106 -159
-216 -222 -85 -48 -87 -57 -5 -25 56 22 138 73 184 114 26 23 37 26 107 26 73
0 80 -2 95 -25 9 -14 20 -25 24 -25 4 0 11 24 14 53 4 29 18 77 31 105 21 46
22 51 6 43 -10 -6 -31 -35 -47 -66 -16 -30 -32 -55 -36 -55 -3 0 -4 19 -1 43
4 33 14 51 52 88 67 66 76 67 102 11 42 -91 25 -190 -42 -246 -23 -20 -26 -26
-13 -26 10 0 39 22 64 50 l46 50 448 0 c498 0 476 -3 539 71 36 42 37 45 82
249 15 69 64 290 72 328 4 15 29 36 77 64 232 135 349 242 289 265 -17 7 -206
-11 -252 -24 -21 -5 -22 -4 -13 13 6 10 33 44 61 74 28 30 50 62 51 71 0 23
-33 49 -63 49 -14 0 -28 3 -30 8 -2 4 9 66 25 137 33 145 32 194 -2 246 -36
55 -69 69 -158 68 -42 -1 -86 -3 -97 -5z m163 -65 c42 -15 66 -67 57 -126 -8
-55 -24 -93 -39 -93 -6 0 -123 -9 -261 -19 -250 -19 -361 -19 -530 0 -49 5
-265 12 -480 16 l-390 6 -78 28 c-43 16 -88 29 -100 29 -12 0 -17 4 -11 9 5 4
81 13 169 19 88 6 259 20 380 31 121 11 279 25 350 31 72 6 177 15 235 21 58
5 191 16 295 25 168 14 329 28 361 33 6 0 25 -4 42 -10z m-2028 -164 c129 -21
254 -55 242 -67 -5 -5 -38 -1 -83 11 -134 36 -379 64 -379 43 0 -21 57 -36
189 -49 80 -7 147 -16 150 -18 12 -13 -14 -13 -119 -1 -63 7 -119 11 -124 8
-4 -2 7 -14 25 -25 l32 -21 -34 -9 c-19 -4 -105 -31 -192 -58 -86 -28 -182
-53 -212 -56 -52 -6 -57 -4 -107 35 -29 22 -66 53 -83 68 -16 14 -52 37 -79
49 l-50 22 120 11 c65 7 187 16 269 22 83 6 161 13 175 16 l25 6 -25 13 c-23
13 -16 14 70 15 52 0 138 -7 190 -15z m-854 -94 c57 -57 114 -133 114 -152 0
-12 -34 -17 -167 -27 -239 -17 -216 -22 -237 44 -20 63 -14 109 15 124 20 11
134 27 210 29 32 1 51 -4 65 -18z m2910 -5 c-2 -12 -8 -38 -11 -58 -5 -27 -12
-38 -25 -38 -21 0 -411 77 -416 83 -2 2 85 9 194 16 108 7 198 14 200 15 1 2
16 3 33 3 26 0 30 -4 25 -21z m-660 -162 c19 -9 48 -29 64 -44 28 -26 31 -27
78 -15 27 7 118 18 203 24 85 6 178 17 207 25 29 8 83 17 120 20 37 2 56 2 42
-1 -60 -12 -239 -95 -315 -146 -51 -34 -129 -120 -153 -169 -12 -25 -29 -49
-38 -52 -33 -13 -98 -5 -130 15 -19 11 -34 17 -34 12 0 -12 38 -47 67 -62 31
-16 106 -14 129 4 25 19 45 19 38 0 -4 -8 -1 -15 5 -15 19 0 24 30 10 57 -13
23 -11 27 21 54 19 16 55 35 80 44 61 20 386 77 422 73 29 -3 28 -4 -54 -89
-127 -131 -248 -214 -458 -312 -166 -78 -198 -91 -327 -132 -59 -18 -70 -20
-65 -7 4 11 1 14 -11 9 -9 -3 -17 -2 -17 3 0 6 6 10 13 10 17 0 135 58 119 59
-17 1 -125 -33 -227 -71 -106 -39 -261 -75 -360 -83 -85 -7 -181 8 -266 41
-65 25 -172 100 -224 155 -68 73 -89 127 -89 229 0 76 3 92 32 146 17 34 38
69 47 77 26 26 1 28 -37 2 -41 -28 -93 -103 -109 -155 l-11 -36 -52 3 c-36 3
-71 -3 -121 -21 -70 -25 -70 -25 -30 -27 53 -3 -120 -15 -315 -23 -316 -13
-597 -26 -660 -30 -44 -3 -56 -2 -35 3 17 5 53 9 81 10 41 1 75 13 170 60 153
76 214 101 349 144 200 65 376 106 550 127 50 6 104 13 120 16 88 13 342 24
589 24 226 0 282 3 295 14 9 8 43 24 76 35 69 25 153 22 211 -5z m-1136 -8 c0
-2 -8 -10 -17 -17 -16 -13 -17 -12 -4 4 13 16 21 21 21 13z m-974 -42 c5 -21
1 -31 -22 -50 -16 -12 -42 -26 -59 -30 -30 -7 -83 -53 -103 -91 -6 -11 -25
-23 -41 -26 -20 -4 -29 -11 -25 -20 6 -17 -10 -30 -54 -45 -30 -10 -34 -9 -41
11 -18 47 -62 239 -57 245 7 6 244 28 333 31 60 1 63 0 69 -25z m-311 -304
c-3 -5 -11 -10 -16 -10 -6 0 -7 5 -4 10 3 6 11 10 16 10 6 0 7 -4 4 -10z
m1152 -76 c-3 -3 -12 -4 -19 -1 -8 3 -5 6 6 6 11 1 17 -2 13 -5z m-100 -10
c-3 -3 -12 -4 -19 -1 -8 3 -5 6 6 6 11 1 17 -2 13 -5z m-144 -11 c-13 -2 -35
-2 -50 0 -16 2 -5 4 22 4 28 0 40 -2 28 -4z m-268 -14 c-22 -6 -87 -14 -145
-18 -58 -5 -84 -9 -59 -10 26 0 187 8 359 19 172 12 334 20 359 18 25 -2 -162
-16 -416 -32 -411 -25 -464 -27 -477 -14 -13 14 -3 16 97 22 181 11 262 18
266 22 2 2 16 4 30 3 20 -1 16 -3 -14 -10z m98 4 c-7 -2 -19 -2 -25 0 -7 3 -2
5 12 5 14 0 19 -2 13 -5z m44 1 c-3 -3 -12 -4 -19 -1 -8 3 -5 6 6 6 11 1 17
-2 13 -5z m398 -25 c-22 -4 -74 -7 -115 -7 l-75 2 80 6 c44 3 96 7 115 7 l35
1 -40 -9z m-355 -22 c-85 -4 -186 -11 -225 -16 l-70 -8 105 -2 c58 0 213 4
345 10 l240 10 25 -32 c53 -70 149 -158 205 -190 l59 -33 -35 -8 c-156 -32
-709 -50 -862 -27 -208 30 -289 50 -441 107 -99 37 -164 70 -240 124 -5 3 4
18 20 32 l29 25 -49 1 c-27 0 -47 2 -44 5 3 3 81 8 173 11 150 5 168 3 180
-12 11 -16 32 -16 361 2 192 11 356 17 364 14 8 -3 -55 -8 -140 -13z m2107
-14 c-3 -10 -11 -43 -17 -73 -7 -30 -16 -62 -21 -71 -8 -16 -69 -23 -299 -35
l-85 -4 150 67 c83 37 175 82 205 99 65 38 73 40 67 17z m-47 -192 c0 -20 -32
-168 -42 -193 -11 -30 -4 -29 -243 -48 -184 -15 -676 -50 -701 -50 -16 0 -26
11 -39 48 -10 26 -22 52 -27 59 -13 17 -2 21 119 43 146 26 262 54 358 86 65
21 120 30 300 44 274 22 275 22 275 11z m-2773 -60 c6 -10 31 -28 55 -40 24
-12 54 -30 68 -42 l25 -21 -35 6 c-25 4 -31 3 -20 -4 11 -7 0 -9 -37 -8 l-52
1 -16 51 c-9 28 -18 57 -20 64 -7 19 19 14 32 -7z m200 -148 c28 -42 43 -81
43 -113 l0 -30 -72 0 c-40 0 -82 3 -94 6 -28 7 -53 52 -60 108 l-7 45 49 4
c120 9 122 9 141 -20z m1303 -58 c-50 -51 -71 -59 -45 -17 22 36 53 62 73 62
11 0 1 -16 -28 -45z m1205 -12 c-37 -62 -20 -60 -498 -65 -406 -5 -465 -2
-443 20 7 7 786 68 894 71 l63 1 -16 -27z m-1258 -69 c-3 -3 -12 -4 -19 -1 -8
3 -5 6 6 6 11 1 17 -2 13 -5z"/>
<path d="M3328 2203 c7 -3 16 -2 19 1 4 3 -2 6 -13 5 -11 0 -14 -3 -6 -6z"/>
<path d="M2723 1990 c-117 -24 -174 -108 -127 -188 15 -24 15 -25 0 -8 -9 11
-18 17 -22 14 -12 -12 19 -50 51 -64 46 -19 139 -18 155 1 7 8 18 15 26 15 15
0 74 49 59 50 -6 0 -28 -9 -50 -20 -54 -27 -123 -26 -166 3 -27 18 -35 30 -37
61 -6 67 61 116 157 116 39 0 56 -6 81 -27 30 -24 32 -30 26 -70 -3 -25 -2
-43 4 -43 6 0 10 4 10 9 0 5 10 11 23 13 31 4 35 49 7 88 -38 53 -100 69 -197
50z"/>
<path d="M2712 1903 c3 -26 1 -28 -36 -28 -49 0 -54 -14 -21 -54 22 -25 34
-31 66 -31 71 0 120 40 103 84 -7 18 -44 40 -87 50 -26 6 -28 5 -25 -21z"/>
<path d="M1531 1886 c-19 -7 -37 -18 -39 -24 -5 -15 44 3 68 25 17 15 16 15
-29 -1z"/>
<path d="M1465 1870 c-3 -5 -1 -10 4 -10 6 0 11 5 11 10 0 6 -2 10 -4 10 -3 0
-8 -4 -11 -10z"/>
<path d="M1346 1851 c-3 -5 -30 -12 -60 -15 -41 -6 -60 -14 -82 -37 -32 -34
-22 -40 13 -7 24 22 53 32 53 18 0 -4 -7 -13 -15 -20 -11 -9 -13 -16 -6 -23 7
-7 16 -6 28 5 10 8 23 13 30 11 6 -2 20 8 30 24 10 15 25 33 33 40 13 11 13
12 -2 13 -9 0 -19 -4 -22 -9z m-16 -30 c0 -5 -8 -15 -17 -22 -16 -13 -17 -12
-4 4 7 9 9 17 3 17 -5 0 -17 -12 -27 -26 -9 -14 -19 -23 -23 -20 -8 8 39 56
55 56 7 0 13 -4 13 -9z"/>
<path d="M1450 1840 c0 -5 4 -10 9 -10 6 0 13 5 16 10 3 6 -1 10 -9 10 -9 0
-16 -4 -16 -10z"/>
<path d="M1207 1772 c-20 -21 -37 -42 -37 -47 0 -5 5 -4 11 2 6 6 18 9 25 6 8
-3 14 0 14 7 0 6 -5 8 -12 4 -9 -5 -9 -2 1 9 14 18 26 23 17 8 -3 -5 1 -12 9
-15 12 -4 14 -2 6 11 -6 11 -6 24 0 35 14 26 7 22 -34 -20z"/>
<path d="M3360 1741 c0 -5 -8 -11 -17 -14 -17 -4 -17 -4 0 -12 13 -5 25 -1 40
14 l21 21 -22 0 c-12 0 -22 -4 -22 -9z"/>
<path d="M2042 1688 c-19 -19 -14 -43 21 -94 46 -69 57 -98 57 -154 0 -44 3
-51 40 -83 33 -28 51 -35 102 -41 166 -17 280 2 485 82 56 22 132 45 170 52
100 18 122 31 43 26 -61 -3 -125 -22 -340 -101 -62 -23 -97 -29 -196 -33 -136
-5 -176 3 -224 48 -27 25 -31 35 -29 77 3 69 -5 86 -66 132 -58 44 -61 50 -45
82 12 21 1 26 -18 7z"/>
<path d="M2112 1660 c-31 -13 -21 -25 21 -28 29 -2 35 1 33 15 -3 21 -22 26
-54 13z"/>
<path d="M2145 1610 c3 -5 18 -10 33 -10 21 0 24 2 12 10 -20 13 -53 13 -45 0z"/>
<path d="M2170 1586 c0 -2 9 -6 20 -9 11 -3 18 -1 14 4 -5 9 -34 13 -34 5z"/>
<path d="M2578 1448 c-53 -29 -110 -63 -125 -74 l-28 -22 82 13 c45 7 87 16
93 20 6 4 56 24 112 45 91 34 99 39 79 49 -12 7 -43 14 -69 17 -42 4 -56 0
-144 -48z"/>
<path d="M2071 1451 c-30 -41 -26 -65 15 -111 44 -49 63 -43 28 8 -22 31 -25
45 -20 85 3 26 3 47 1 47 -2 0 -13 -13 -24 -29z"/>
<path d="M758 1493 c12 -2 30 -2 40 0 9 3 -1 5 -23 4 -22 0 -30 -2 -17 -4z"/>
<path d="M1856 1011 c-4 -5 -44 -34 -91 -65 -75 -50 -85 -60 -85 -86 0 -17 3
-30 6 -30 25 0 194 159 194 183 0 10 -18 9 -24 -2z"/>
<path d="M1869 960 c-19 -23 -59 -60 -89 -83 -30 -23 -59 -46 -65 -50 -5 -4
-19 -14 -30 -21 -15 -11 -17 -18 -10 -35 10 -20 11 -20 57 9 55 35 202 220
174 220 -2 0 -18 -18 -37 -40z"/>
<path d="M592 780 c-28 -12 -50 -56 -35 -71 7 -7 13 -2 17 17 13 52 75 73 97
33 20 -38 -12 -139 -45 -139 -11 0 -11 10 0 63 17 78 17 77 0 77 -19 0 -24 -8
-31 -51 -3 -19 -10 -49 -15 -66 -4 -18 -8 -33 -7 -34 1 -1 21 -3 44 -5 49 -4
77 17 87 68 19 95 -28 141 -112 108z"/>
<path d="M1064 772 c-6 -4 -13 -14 -16 -23 -4 -9 -19 -19 -35 -22 -28 -6 -42
-23 -63 -80 -14 -41 -30 -25 -19 20 10 46 1 57 -48 59 -27 1 -37 -4 -41 -18
-6 -24 -28 -23 -35 2 -11 44 -79 8 -90 -48 -6 -33 0 -50 23 -57 26 -8 58 14
69 47 15 41 24 34 17 -13 -6 -35 -4 -40 11 -37 13 2 21 18 27 51 13 64 37 64
33 0 l-2 -48 80 0 c44 0 87 3 96 7 9 4 21 2 26 -3 13 -13 55 -8 60 7 2 7 -4
11 -13 10 -29 -2 -25 18 7 36 36 21 38 61 3 66 -24 3 -64 -39 -64 -68 0 -10
-7 -23 -15 -30 -19 -16 -20 -2 -4 69 12 56 9 84 -7 73z m-274 -96 c0 -33 -20
-62 -33 -49 -10 9 -9 27 3 57 14 37 30 32 30 -8z m240 0 c-9 -42 -19 -58 -31
-51 -20 13 1 85 25 85 11 0 12 -8 6 -34z m130 20 c0 -16 -18 -31 -27 -22 -8 8
5 36 17 36 5 0 10 -6 10 -14z"/>
<path d="M648 550 c-54 -29 -88 -78 -88 -127 0 -28 5 -43 16 -47 24 -9 24 -9
24 37 0 60 38 113 90 127 80 21 124 -34 98 -123 -11 -36 -51 -87 -70 -87 -9 0
-4 51 13 128 12 54 7 61 -33 53 -25 -5 -34 -13 -36 -31 -2 -14 -17 -92 -33
-175 -16 -82 -29 -153 -29 -157 0 -5 16 -8 35 -8 28 0 36 4 39 23 27 132 31
141 61 147 87 18 139 117 105 199 -24 58 -121 78 -192 41z"/>
<path d="M2188 547 c-14 -12 -31 -32 -37 -44 -15 -29 -14 -86 1 -101 10 -10 7
-18 -15 -38 -39 -36 -54 -63 -62 -111 -17 -108 88 -158 183 -86 l34 25 -4 -23
c-3 -21 2 -24 33 -27 l35 -3 13 68 c19 106 32 152 48 164 38 32 37 -38 -4
-208 -5 -21 -1 -23 31 -23 21 0 38 5 40 13 2 6 11 52 21 101 17 92 31 126 51
126 21 0 24 -30 9 -107 -12 -61 -12 -81 -2 -102 16 -34 60 -40 97 -13 26 20
27 20 38 1 16 -25 62 -25 94 1 25 19 26 19 43 0 10 -11 27 -20 37 -20 22 0 60
18 70 34 5 7 14 3 28 -12 26 -28 59 -28 94 -1 l26 20 26 -20 c67 -53 149 2
170 113 4 22 18 55 31 74 24 36 22 62 -3 28 -7 -11 -15 -18 -16 -15 -2 2 -10
18 -19 34 -14 27 -20 30 -61 29 -37 0 -51 -5 -67 -25 -32 -38 -61 -106 -61
-141 0 -38 -8 -52 -33 -61 -28 -10 -31 15 -12 111 24 125 25 117 -15 117 l-35
0 -20 -103 c-15 -76 -25 -108 -40 -118 -16 -12 -21 -12 -32 -1 -12 11 -11 26
1 88 40 205 47 242 42 246 -10 10 -65 -9 -70 -25 -3 -9 -16 -77 -30 -151 -27
-139 -36 -161 -67 -161 -24 0 -24 21 -4 127 20 104 20 103 -18 103 l-33 0 -22
-107 c-22 -109 -42 -144 -67 -123 -9 8 -9 30 2 96 12 77 12 90 -2 110 -19 29
-54 31 -87 4 -25 -19 -26 -19 -43 0 -20 22 -55 26 -73 8 -9 -9 -15 -9 -24 0
-7 7 -25 12 -40 12 -31 0 -29 4 -53 -124 -8 -43 -16 -80 -17 -81 -42 -29 -58
-35 -85 -35 -65 0 -70 90 -8 158 l33 37 -20 25 c-35 44 -9 130 39 130 20 0 28
-29 16 -61 -14 -36 1 -48 28 -23 11 9 19 30 19 47 0 62 -79 89 -132 44z m1055
-208 c0 -30 -1 -64 -2 -76 -1 -12 -12 -35 -25 -50 -20 -23 -27 -26 -37 -15
-24 23 -4 146 29 185 25 29 37 14 35 -44z"/>
<path d="M1566 534 c-19 -18 -20 -28 -6 -55 19 -34 70 -18 70 22 0 18 -25 49
-40 49 -5 0 -16 -7 -24 -16z"/>
<path d="M2746 534 c-19 -18 -20 -28 -6 -55 20 -36 70 -17 70 26 0 41 -36 58
-64 29z"/>
<path d="M3016 534 c-20 -20 -20 -27 2 -54 27 -34 62 -20 62 25 0 44 -34 60
-64 29z"/>
<path d="M1439 530 c-12 -7 -25 -52 -45 -157 -21 -113 -32 -152 -47 -166 -37
-32 -43 -6 -24 106 10 56 17 105 17 110 0 9 -57 9 -64 -1 -2 -4 -12 -46 -21
-92 -21 -109 -30 -130 -55 -130 -20 0 -21 4 -14 48 4 26 13 74 20 107 6 33 9
64 4 68 -4 5 -20 7 -36 5 -25 -3 -29 -8 -36 -48 -22 -126 -32 -161 -50 -176
-34 -31 -43 -5 -28 78 7 40 15 90 17 110 l5 37 -69 -1 c-37 -1 -80 -7 -94 -14
-68 -34 -106 -208 -57 -254 28 -25 62 -26 88 0 25 25 32 25 48 0 16 -25 52
-26 84 -1 24 20 25 20 41 0 22 -25 62 -24 88 2 l21 21 14 -21 c20 -28 67 -28
95 0 l21 21 19 -21 c25 -27 59 -27 93 0 l27 22 15 -22 c19 -27 55 -27 80 0 18
20 18 21 -1 35 -19 14 -19 16 -2 115 9 56 14 105 11 110 -6 11 -64 12 -64 2
-1 -29 -42 -199 -51 -209 -17 -21 -49 -17 -49 5 0 11 11 77 25 147 14 70 25
138 25 151 0 25 -22 30 -51 13z m-444 -204 c-10 -82 -28 -126 -54 -126 -28 0
-36 38 -21 100 14 59 44 102 66 93 13 -5 14 -17 9 -67z"/>
<path d="M1757 413 c-3 -10 -13 -62 -23 -115 -14 -77 -15 -103 -6 -123 15 -33
38 -41 73 -28 16 7 29 7 29 2 0 -5 -7 -9 -16 -9 -8 0 -29 -14 -46 -30 -24 -25
-29 -36 -23 -58 13 -57 70 -69 114 -24 19 18 31 46 39 87 37 180 58 301 55
308 -2 4 -19 7 -37 7 l-33 0 -17 -102 c-13 -80 -21 -107 -38 -121 -16 -14 -23
-15 -29 -5 -8 12 -6 25 16 142 8 38 12 73 9 78 -10 16 -62 9 -67 -9z m50 -351
c-17 -16 -37 -9 -37 13 0 8 10 24 23 35 l22 21 3 -27 c2 -15 -3 -33 -11 -42z"/>
</g>
</svg>
