<?xml version="1.0" standalone="no"?>
<!DOCTYPE svg PUBLIC "-//W3C//DTD SVG 20010904//EN"
 "http://www.w3.org/TR/2001/REC-SVG-20010904/DTD/svg10.dtd">
<svg version="1.0" xmlns="http://www.w3.org/2000/svg"
 width="396.000000pt" height="177.000000pt" viewBox="0 0 396.000000 177.000000"
 preserveAspectRatio="xMidYMid meet">

<g transform="translate(0.000000,177.000000) scale(0.100000,-0.100000)"
fill="#000000" stroke="none">
<path d="M3230 1689 c-113 -10 -288 -25 -390 -33 -102 -9 -234 -21 -295 -26
-120 -11 -666 -58 -1060 -90 -137 -11 -322 -27 -410 -35 -88 -7 -223 -19 -300
-25 -167 -13 -352 -38 -381 -52 -34 -16 -56 -64 -55 -121 1 -29 27 -155 59
-282 l59 -230 89 3 c84 3 95 6 194 54 58 28 130 62 160 76 194 86 516 172 755
202 50 6 104 13 120 16 88 13 343 24 591 24 227 0 284 3 293 14 6 7 43 24 81
36 105 34 199 16 270 -50 29 -27 30 -27 87 -14 32 7 123 18 203 23 80 6 168
17 195 25 27 9 80 17 119 20 39 3 60 2 46 0 -14 -3 -59 -20 -100 -37 -201 -83
-311 -167 -368 -280 -12 -25 -29 -48 -38 -51 -32 -12 -94 -5 -128 15 -20 12
-36 17 -36 12 0 -12 38 -47 67 -62 30 -15 103 -13 133 4 32 18 41 18 34 0 -4
-8 -1 -15 5 -15 19 0 25 30 11 56 -12 21 -11 26 11 45 38 33 64 49 100 60 60
17 383 70 412 67 28 -3 26 -5 -55 -89 -79 -82 -162 -150 -238 -196 -127 -78
-396 -202 -513 -239 -29 -8 -64 -19 -79 -24 -22 -7 -26 -6 -21 8 5 11 2 14
-10 9 -9 -3 -17 -2 -17 3 0 6 6 10 13 10 17 0 135 58 119 59 -17 1 -125 -33
-227 -71 -106 -39 -261 -75 -360 -83 -132 -11 -258 23 -375 101 -90 60 -145
116 -177 182 -24 49 -28 69 -28 142 1 79 3 90 39 158 21 39 43 72 48 72 5 0 6
5 3 10 -9 15 -62 -18 -95 -60 -32 -40 -70 -113 -70 -133 0 -10 -13 -13 -52
-10 -38 3 -72 -3 -123 -21 l-70 -25 50 -2 c28 -1 1 -5 -60 -9 -108 -7 -182
-11 -640 -31 -126 -5 -283 -14 -348 -20 -65 -6 -128 -8 -140 -5 -12 3 -64 46
-115 96 -91 87 -189 149 -213 134 -6 -3 8 -22 32 -42 35 -30 149 -189 149
-207 0 -3 -10 -5 -22 -5 -13 -1 -36 -7 -53 -15 -29 -13 -28 -13 34 -14 71 -1
90 -15 91 -64 0 -17 11 -37 30 -55 25 -22 32 -39 39 -95 5 -37 18 -82 29 -100
28 -45 44 -103 44 -149 -1 -50 13 -46 55 15 32 48 37 70 49 210 3 49 10 77 18
77 7 0 31 -77 59 -193 65 -260 87 -287 238 -287 66 0 71 -1 66 -20 -8 -29 11
-35 22 -7 l9 24 264 6 c144 4 334 7 421 7 l157 0 0 25 c0 14 -1 28 -2 31 -2 3
-180 5 -396 4 l-393 -1 14 28 c8 15 24 50 36 76 16 36 26 47 39 43 70 -21 228
-31 490 -31 236 0 289 -2 275 -12 -9 -7 -23 -13 -30 -13 -16 0 -18 -66 -3 -75
11 -7 86 37 152 87 25 19 54 31 88 35 l51 6 -11 -29 c-35 -93 -75 -157 -131
-208 -50 -46 -56 -56 -38 -56 21 0 53 21 108 69 20 18 37 21 102 21 73 0 80
-2 95 -25 24 -36 30 -31 37 26 4 28 17 75 31 105 22 47 23 53 7 44 -10 -5 -31
-34 -47 -65 -16 -30 -32 -55 -36 -55 -3 0 -4 19 -1 43 4 33 14 51 52 88 67 66
76 67 102 11 40 -86 29 -170 -30 -234 -19 -22 -21 -28 -9 -28 9 0 28 15 42 33
15 17 31 38 37 44 7 10 112 13 460 13 502 0 479 -3 542 71 36 42 37 45 82 249
15 69 64 290 72 328 4 15 29 36 77 64 162 94 316 214 316 246 0 21 -52 25
-154 13 -56 -6 -112 -14 -125 -18 -21 -5 -22 -4 -13 13 6 10 31 42 56 69 25
28 48 58 52 68 8 26 -23 57 -58 57 -36 0 -36 11 -2 161 29 129 27 179 -6 230
-50 77 -83 80 -440 48z m348 -50 c32 -11 62 -59 62 -101 0 -26 -16 -87 -28
-105 -5 -9 -91 -19 -266 -32 -257 -18 -357 -19 -536 0 -52 5 -268 12 -480 15
l-385 6 -83 29 c-46 16 -92 29 -103 29 -10 0 -19 4 -19 8 0 5 75 13 168 20 92
6 293 22 447 36 154 14 334 30 400 36 494 40 716 60 750 64 11 2 25 4 31 5 6
0 25 -4 42 -10z m-2028 -164 c133 -22 254 -55 242 -67 -7 -7 -27 -5 -59 6
-100 32 -403 70 -403 50 0 -24 55 -38 189 -51 80 -7 147 -16 150 -18 12 -13
-14 -13 -119 -1 -63 8 -119 11 -124 9 -4 -3 6 -15 24 -26 l33 -21 -49 -13
c-27 -8 -113 -34 -192 -59 -78 -25 -167 -48 -197 -51 -52 -5 -57 -4 -107 35
-29 22 -66 53 -83 68 -16 14 -52 37 -79 49 l-50 22 120 11 c65 7 187 16 269
22 83 6 161 13 175 16 l25 6 -25 13 c-23 13 -16 14 70 15 52 0 138 -7 190 -15z
m-849 -101 c13 -14 33 -35 45 -47 31 -33 64 -83 64 -99 0 -11 -36 -17 -162
-26 -242 -18 -221 -22 -242 44 -20 63 -14 109 15 124 20 11 134 27 210 29 39
1 51 -4 70 -25z m2906 3 c-3 -12 -9 -39 -12 -59 -5 -27 -12 -38 -25 -38 -26 0
-411 78 -418 85 -3 3 26 5 64 6 38 0 130 6 204 13 203 18 193 18 187 -7z
m-1797 -171 c0 -2 -8 -10 -17 -17 -16 -13 -17 -12 -4 4 13 16 21 21 21 13z
m-974 -42 c5 -21 1 -31 -22 -50 -16 -12 -42 -26 -59 -30 -31 -7 -83 -53 -104
-91 -6 -12 -23 -23 -38 -25 -20 -2 -27 -8 -25 -20 1 -9 -3 -20 -10 -25 -23
-14 -78 -31 -82 -24 -2 3 -18 62 -36 130 -37 142 -38 140 55 142 33 1 89 5
125 9 36 4 93 8 127 8 60 2 63 1 69 -24z m-311 -304 c-3 -5 -11 -10 -16 -10
-6 0 -7 5 -4 10 3 6 11 10 16 10 6 0 7 -4 4 -10z m1183 -77 c-10 -2 -28 -2
-40 0 -13 2 -5 4 17 4 22 1 32 -1 23 -4z m-131 -9 c-3 -3 -12 -4 -19 -1 -8 3
-5 6 6 6 11 1 17 -2 13 -5z m-144 -11 c-13 -2 -35 -2 -50 0 -16 2 -5 4 22 4
28 0 40 -2 28 -4z m-245 -8 c-3 -3 -32 -9 -64 -14 l-59 -9 55 -1 c30 0 152 6
270 14 118 8 242 14 275 13 71 -2 77 -1 -260 -23 -126 -8 -314 -20 -417 -26
-165 -11 -188 -10 -202 3 -13 14 -4 16 97 22 197 12 262 18 266 22 2 2 13 4
24 4 11 0 18 -2 15 -5z m75 -2 c-7 -2 -19 -2 -25 0 -7 3 -2 5 12 5 14 0 19 -2
13 -5z m442 -24 c-22 -4 -74 -7 -115 -7 l-75 2 80 6 c44 3 96 7 115 7 l35 1
-40 -9z m-355 -22 c-85 -4 -186 -11 -225 -16 l-70 -8 105 -2 c58 0 213 4 345
10 l240 10 30 -38 c56 -72 143 -152 201 -184 l58 -33 -34 -8 c-19 -4 -118 -14
-218 -23 -256 -23 -599 -17 -767 14 -238 44 -413 111 -559 213 -5 3 4 18 20
32 l29 25 -54 1 c-30 0 -52 2 -49 5 3 3 83 8 178 10 154 5 174 4 185 -11 11
-16 33 -16 361 2 192 11 356 17 364 14 8 -3 -55 -8 -140 -13z m2107 -14 c-3
-10 -11 -43 -17 -73 -7 -30 -16 -62 -21 -71 -8 -16 -73 -24 -299 -35 l-85 -4
40 19 c22 10 83 37 135 60 52 23 127 59 165 80 82 45 88 47 82 24z m-47 -192
c0 -20 -32 -168 -42 -193 -11 -30 -4 -29 -243 -48 -181 -15 -676 -50 -700 -50
-15 0 -27 16 -48 62 -15 34 -26 63 -24 64 1 1 54 11 117 22 133 24 295 63 383
93 46 16 120 26 282 39 275 22 275 22 275 11z m-2770 -70 c0 -4 21 -16 48 -28
26 -13 58 -32 72 -44 24 -20 25 -21 3 -16 -13 3 -25 1 -28 -4 -3 -4 -26 -8
-50 -7 l-45 1 -19 61 c-20 64 -17 92 6 61 7 -11 13 -21 13 -24z m197 -138 c28
-42 43 -81 43 -113 l0 -30 -72 0 c-40 0 -82 3 -94 6 -28 7 -53 52 -60 108 l-7
45 49 4 c120 9 122 9 141 -20z m1303 -58 c-50 -51 -71 -59 -45 -17 22 36 53
62 73 62 11 0 1 -16 -28 -45z m1205 -12 c-37 -62 -20 -60 -498 -65 -403 -5
-464 -2 -443 20 7 7 789 69 894 71 l63 1 -16 -27z m-1258 -69 c-3 -3 -12 -4
-19 -1 -8 3 -5 6 6 6 11 1 17 -2 13 -5z"/>
<path d="M3398 1423 c7 -3 16 -2 19 1 4 3 -2 6 -13 5 -11 0 -14 -3 -6 -6z"/>
<path d="M958 723 c23 -2 59 -2 80 0 20 2 1 4 -43 4 -44 0 -61 -2 -37 -4z"/>
<path d="M828 713 c12 -2 30 -2 40 0 9 3 -1 5 -23 4 -22 0 -30 -2 -17 -4z"/>
<path d="M2795 1210 c-66 -14 -92 -27 -119 -63 -30 -39 -34 -85 -10 -125 15
-24 15 -25 0 -8 -20 25 -31 15 -16 -14 15 -29 68 -50 124 -50 58 0 173 56 154
76 -2 2 -22 -5 -43 -16 -54 -27 -123 -26 -166 3 -27 18 -35 30 -37 61 -6 67
61 116 157 116 39 0 56 -6 81 -27 30 -24 32 -30 26 -70 -5 -38 -4 -42 12 -34
9 5 25 12 35 15 24 7 22 51 -4 87 -37 52 -100 68 -194 49z"/>
<path d="M2782 1122 c3 -25 1 -27 -36 -27 -49 0 -54 -14 -21 -54 22 -25 34
-31 66 -31 128 0 145 109 21 133 -31 6 -33 5 -30 -21z"/>
<path d="M1596 1104 c-21 -7 -42 -11 -46 -9 -5 3 -12 0 -16 -6 -11 -18 75 -4
95 15 18 19 17 19 -33 0z"/>
<path d="M1416 1071 c-3 -5 -30 -12 -59 -15 -45 -6 -60 -13 -88 -43 -35 -37
-22 -36 19 0 23 22 52 31 52 17 0 -4 -7 -13 -15 -20 -12 -10 -15 -10 -15 1 0
7 -16 -2 -35 -21 -19 -19 -35 -38 -35 -44 0 -6 4 -6 11 1 6 6 18 9 25 6 8 -3
14 0 14 7 0 6 -5 8 -12 4 -7 -4 -5 2 6 14 14 16 23 19 36 12 13 -7 21 -5 30 5
6 7 17 12 24 9 6 -2 22 7 34 21 12 14 19 25 15 25 -4 0 2 7 13 15 17 13 17 14
2 15 -9 0 -19 -4 -22 -9z m-16 -30 c0 -5 -8 -15 -17 -22 -16 -13 -17 -12 -4 4
7 9 9 17 3 17 -5 0 -17 -12 -27 -26 -9 -14 -19 -23 -23 -20 -8 8 39 56 55 56
7 0 13 -4 13 -9z"/>
<path d="M1520 1060 c0 -5 4 -10 9 -10 6 0 13 5 16 10 3 6 -1 10 -9 10 -9 0
-16 -4 -16 -10z"/>
<path d="M1296 981 c-3 -5 1 -11 9 -14 9 -4 12 -1 8 9 -6 16 -10 17 -17 5z"/>
<path d="M3430 961 c0 -5 -8 -11 -17 -14 -17 -4 -17 -4 0 -12 13 -5 25 -1 40
14 l21 21 -22 0 c-12 0 -22 -4 -22 -9z"/>
<path d="M2112 908 c-19 -19 -14 -39 18 -88 45 -66 60 -106 60 -160 0 -44 4
-52 40 -83 45 -38 86 -47 223 -47 92 0 203 26 332 77 107 43 208 72 250 73 17
0 37 5 45 11 11 8 -2 9 -50 6 -61 -4 -128 -24 -340 -102 -62 -23 -97 -29 -196
-33 -136 -5 -176 3 -224 48 -27 25 -31 35 -29 77 3 69 -5 86 -66 132 -53 40
-66 63 -45 76 12 7 13 25 2 25 -4 0 -13 -5 -20 -12z"/>
<path d="M2200 880 c0 -6 -4 -8 -10 -5 -5 3 -15 3 -22 -1 -14 -9 15 -22 49
-23 15 -1 20 4 19 17 -3 19 -36 30 -36 12z"/>
<path d="M2215 830 c3 -5 18 -10 33 -9 24 0 25 1 7 9 -28 12 -47 12 -40 0z"/>
<path d="M2648 668 c-53 -29 -110 -62 -125 -74 l-28 -21 69 9 c38 5 110 25
160 44 50 20 106 41 125 48 34 13 34 14 13 25 -13 7 -44 14 -70 17 -42 4 -56
0 -144 -48z"/>
<path d="M2147 682 c-9 -10 -20 -32 -23 -49 -5 -26 0 -37 31 -72 45 -49 64
-45 29 7 -22 31 -25 45 -20 85 3 26 4 47 2 47 -2 0 -10 -8 -19 -18z"/>
<path d="M1926 231 c-8 -13 -143 -101 -155 -101 -5 0 -12 -7 -15 -16 -8 -20
-8 -64 0 -64 25 0 194 158 194 182 0 11 -17 10 -24 -1z"/>
<path d="M1931 171 c-23 -27 -76 -72 -116 -101 -41 -29 -75 -57 -75 -62 0 -14
64 -9 88 8 24 17 152 181 152 196 0 14 -6 9 -49 -41z"/>
</g>
</svg>
